<mxfile host="app.diagrams.net" modified="2024-02-28T06:35:18.402Z" agent="Mozilla/5.0 (Macintosh; Intel Mac OS X 10_15_7) AppleWebKit/537.36 (KHTML, like Gecko) Chrome/121.0.0.0 Safari/537.36" etag="NXuxybZWwVszBVuUtl1J" version="23.1.7" type="device" pages="2">
  <diagram name="Page-1" id="hfRKvqooLtUeSJySy3kA">
    <mxGraphModel dx="1570" dy="992" grid="1" gridSize="10" guides="1" tooltips="1" connect="1" arrows="1" fold="1" page="1" pageScale="1" pageWidth="1100" pageHeight="850" math="0" shadow="0">
      <root>
        <mxCell id="0" />
        <mxCell id="1" parent="0" />
        <mxCell id="235O6LdHgJFOxp4_cpSZ-4" value="" style="shape=cube;whiteSpace=wrap;html=1;boundedLbl=1;backgroundOutline=1;darkOpacity=0.05;darkOpacity2=0.1;" parent="1" vertex="1">
          <mxGeometry x="250" y="360" width="640" height="110" as="geometry" />
        </mxCell>
        <mxCell id="235O6LdHgJFOxp4_cpSZ-5" value="" style="shape=cube;whiteSpace=wrap;html=1;boundedLbl=1;backgroundOutline=1;darkOpacity=0.05;darkOpacity2=0.1;fillColor=#f8cecc;strokeColor=#b85450;" parent="1" vertex="1">
          <mxGeometry x="260" y="370" width="150" height="110" as="geometry" />
        </mxCell>
        <mxCell id="235O6LdHgJFOxp4_cpSZ-6" value="" style="shape=cube;whiteSpace=wrap;html=1;boundedLbl=1;backgroundOutline=1;darkOpacity=0.05;darkOpacity2=0.1;fillColor=#dae8fc;strokeColor=#6c8ebf;" parent="1" vertex="1">
          <mxGeometry x="410" y="370" width="480" height="110" as="geometry" />
        </mxCell>
        <mxCell id="235O6LdHgJFOxp4_cpSZ-7" value="" style="shape=cube;whiteSpace=wrap;html=1;boundedLbl=1;backgroundOutline=1;darkOpacity=0.05;darkOpacity2=0.1;fillColor=#d5e8d4;strokeColor=#82b366;" parent="1" vertex="1">
          <mxGeometry x="410" y="370" width="70" height="110" as="geometry" />
        </mxCell>
        <mxCell id="235O6LdHgJFOxp4_cpSZ-12" style="edgeStyle=orthogonalEdgeStyle;rounded=0;orthogonalLoop=1;jettySize=auto;html=1;entryX=0;entryY=0.25;entryDx=0;entryDy=0;" parent="1" source="235O6LdHgJFOxp4_cpSZ-9" target="235O6LdHgJFOxp4_cpSZ-10" edge="1">
          <mxGeometry relative="1" as="geometry">
            <Array as="points">
              <mxPoint x="555" y="213" />
            </Array>
          </mxGeometry>
        </mxCell>
        <mxCell id="235O6LdHgJFOxp4_cpSZ-9" value="" style="shape=cube;whiteSpace=wrap;html=1;boundedLbl=1;backgroundOutline=1;darkOpacity=0.05;darkOpacity2=0.1;fillColor=#e1d5e7;strokeColor=#9673a6;" parent="1" vertex="1">
          <mxGeometry x="470" y="370" width="180" height="110" as="geometry" />
        </mxCell>
        <mxCell id="235O6LdHgJFOxp4_cpSZ-10" value="" style="rounded=1;whiteSpace=wrap;html=1;" parent="1" vertex="1">
          <mxGeometry x="950" y="90" width="350" height="490" as="geometry" />
        </mxCell>
        <mxCell id="235O6LdHgJFOxp4_cpSZ-11" value="" style="rounded=1;whiteSpace=wrap;html=1;" parent="1" vertex="1">
          <mxGeometry x="960" y="110" width="330" height="60" as="geometry" />
        </mxCell>
        <mxCell id="235O6LdHgJFOxp4_cpSZ-13" value="" style="shape=cube;whiteSpace=wrap;html=1;boundedLbl=1;backgroundOutline=1;darkOpacity=0.05;darkOpacity2=0.1;fillColor=#e51400;strokeColor=#B20000;fontColor=#ffffff;" parent="1" vertex="1">
          <mxGeometry x="630" y="370" width="70" height="110" as="geometry" />
        </mxCell>
        <mxCell id="235O6LdHgJFOxp4_cpSZ-14" value="" style="shape=cube;whiteSpace=wrap;html=1;boundedLbl=1;backgroundOutline=1;darkOpacity=0.05;darkOpacity2=0.1;fillColor=#e1d5e7;strokeColor=#9673a6;" parent="1" vertex="1">
          <mxGeometry x="710" y="370" width="180" height="110" as="geometry" />
        </mxCell>
      </root>
    </mxGraphModel>
  </diagram>
  <diagram id="ddTPirZFMe-uCFgc8FM7" name="Page-2">
    <mxGraphModel dx="1570" dy="992" grid="1" gridSize="10" guides="1" tooltips="1" connect="1" arrows="1" fold="1" page="1" pageScale="1" pageWidth="1100" pageHeight="850" math="0" shadow="0">
      <root>
        <mxCell id="0" />
        <mxCell id="1" parent="0" />
        <mxCell id="xYw8GOF0ZzoQUlj-E4Rh-2" value="" style="rounded=1;whiteSpace=wrap;html=1;" vertex="1" parent="1">
          <mxGeometry x="190" y="110" width="170" height="120" as="geometry" />
        </mxCell>
        <mxCell id="xYw8GOF0ZzoQUlj-E4Rh-3" value="" style="rounded=1;whiteSpace=wrap;html=1;" vertex="1" parent="1">
          <mxGeometry x="750" y="110" width="170" height="120" as="geometry" />
        </mxCell>
        <mxCell id="xYw8GOF0ZzoQUlj-E4Rh-4" value="" style="rounded=1;whiteSpace=wrap;html=1;" vertex="1" parent="1">
          <mxGeometry x="190" y="365" width="170" height="120" as="geometry" />
        </mxCell>
        <mxCell id="xYw8GOF0ZzoQUlj-E4Rh-5" value="" style="rounded=1;whiteSpace=wrap;html=1;" vertex="1" parent="1">
          <mxGeometry x="760" y="365" width="170" height="120" as="geometry" />
        </mxCell>
        <mxCell id="xYw8GOF0ZzoQUlj-E4Rh-6" value="" style="ellipse;whiteSpace=wrap;html=1;aspect=fixed;fillColor=#dae8fc;strokeColor=#6c8ebf;" vertex="1" parent="1">
          <mxGeometry x="270" y="130" width="80" height="80" as="geometry" />
        </mxCell>
        <mxCell id="xYw8GOF0ZzoQUlj-E4Rh-7" value="" style="ellipse;whiteSpace=wrap;html=1;aspect=fixed;fillColor=#dae8fc;strokeColor=#6c8ebf;" vertex="1" parent="1">
          <mxGeometry x="270" y="390" width="80" height="80" as="geometry" />
        </mxCell>
        <mxCell id="xYw8GOF0ZzoQUlj-E4Rh-8" value="" style="ellipse;whiteSpace=wrap;html=1;aspect=fixed;fillColor=#dae8fc;strokeColor=#6c8ebf;" vertex="1" parent="1">
          <mxGeometry x="830" y="130" width="80" height="80" as="geometry" />
        </mxCell>
        <mxCell id="xYw8GOF0ZzoQUlj-E4Rh-9" value="" style="ellipse;whiteSpace=wrap;html=1;aspect=fixed;fillColor=#dae8fc;strokeColor=#6c8ebf;" vertex="1" parent="1">
          <mxGeometry x="830" y="385" width="80" height="80" as="geometry" />
        </mxCell>
      </root>
    </mxGraphModel>
  </diagram>
</mxfile>
